M48
; DRILL file {KiCad 9.0.5} date 2025-12-19T18:50:26-0800
; FORMAT={-:-/ absolute / metric / decimal}
; #@! TF.CreationDate,2025-12-19T18:50:26-08:00
; #@! TF.GenerationSoftware,Kicad,Pcbnew,9.0.5
; #@! TF.FileFunction,Plated,1,2,PTH
FMAT,2
METRIC
; #@! TA.AperFunction,Plated,PTH,ViaDrill
T1C0.300
; #@! TA.AperFunction,Plated,PTH,ComponentDrill
T2C1.000
; #@! TA.AperFunction,Plated,PTH,ComponentDrill
T3C1.500
; #@! TA.AperFunction,Plated,PTH,ComponentDrill
T4C2.500
; #@! TA.AperFunction,Plated,PTH,ComponentDrill
T5C3.000
%
G90
G05
T1
X30.75Y-53.25
X33.5Y-41.0
X39.4Y-32.5
X41.0Y-84.0
X41.499Y-33.0
X41.5Y-71.0
X41.5Y-103.0
X42.299Y-33.0
X43.5Y-26.0
X43.5Y-27.5
X44.0Y-25.0
X46.0Y-24.5
X46.0Y-38.0
X47.5Y-21.5
X50.0Y-23.5
X53.0Y-38.0
X54.5Y-38.5
X55.0Y-18.8
X55.5Y-23.5
X56.0Y-35.5
X56.0Y-37.5
X56.5Y-20.5
X57.4Y-37.616
X60.5Y-44.5
X74.0Y-38.0
X79.0Y-58.0
X79.5Y-41.5
X79.5Y-97.5
X80.5Y-78.5
X88.0Y-34.5
X88.826Y-36.174
X89.0Y-37.701
X91.5Y-37.701
X92.0Y-33.5
X98.5Y-56.0
X98.5Y-75.5
X98.5Y-94.0
X98.5Y-112.0
X99.0Y-36.5
X162.5Y-123.0
X182.0Y-41.5
X182.0Y-80.0
X182.0Y-99.0
X182.0Y-118.5
X182.5Y-61.5
X200.5Y-34.0
X201.0Y-93.5
X201.0Y-112.0
X201.5Y-54.5
X201.5Y-73.5
X210.0Y-36.5
X219.5Y-40.0
X219.5Y-41.5
X220.5Y-60.0
X220.5Y-78.5
X220.5Y-98.5
X220.5Y-116.5
X233.0Y-24.5
X233.6Y-25.115
X235.0Y-43.0
X239.5Y-44.5
X239.5Y-64.5
X251.5Y-46.5
X253.5Y-121.5
X254.0Y-42.0
X254.5Y-83.5
X254.5Y-106.0
X259.0Y-64.0
X261.0Y-21.0
X262.5Y-42.0
X265.0Y-39.5
X266.0Y-36.0
X269.5Y-35.5
X272.5Y-39.5
X275.0Y-36.5
X275.5Y-23.5
T2
X61.806Y-21.312
X61.806Y-23.812
X61.806Y-26.312
X76.306Y-21.312
X76.306Y-26.312
X230.875Y-21.312
X230.875Y-23.812
X230.875Y-26.312
X245.375Y-21.312
X245.375Y-26.312
T4
X40.0Y-25.5
X40.0Y-28.9
X260.0Y-25.5
X260.0Y-28.9
T5
X45.244Y-55.956
X45.244Y-75.006
X45.244Y-94.056
X45.244Y-113.106
X45.244Y-132.156
X50.244Y-53.756
X50.244Y-72.806
X50.244Y-91.856
X50.244Y-110.906
X50.244Y-129.956
X64.294Y-55.956
X64.294Y-75.006
X64.294Y-94.056
X64.294Y-113.106
X64.294Y-132.156
X69.294Y-53.756
X69.294Y-72.806
X69.294Y-91.856
X69.294Y-110.906
X69.294Y-129.956
X83.344Y-51.194
X83.344Y-70.244
X83.344Y-89.294
X83.344Y-108.344
X83.344Y-127.394
X88.344Y-48.994
X88.344Y-68.044
X88.344Y-87.094
X88.344Y-106.144
X88.344Y-125.194
X102.394Y-46.431
X102.394Y-65.481
X102.394Y-84.531
X102.394Y-103.581
X102.394Y-122.631
X107.394Y-44.231
X107.394Y-63.281
X107.394Y-82.331
X107.394Y-101.381
X107.394Y-120.431
X121.444Y-53.575
X121.444Y-72.625
X121.444Y-91.675
X121.444Y-110.725
X121.444Y-129.775
X126.444Y-51.375
X126.444Y-70.425
X126.444Y-89.475
X126.444Y-108.525
X126.444Y-127.575
X140.494Y-58.337
X140.494Y-77.388
X140.494Y-96.438
X140.494Y-115.487
X140.494Y-134.537
X145.494Y-56.137
X145.494Y-75.188
X145.494Y-94.237
X145.494Y-113.287
X145.494Y-132.338
X166.688Y-58.337
X166.688Y-77.388
X166.688Y-96.438
X166.688Y-115.487
X166.688Y-134.537
X171.688Y-56.137
X171.688Y-75.188
X171.688Y-94.237
X171.688Y-113.287
X171.688Y-132.338
X185.737Y-53.575
X185.737Y-72.625
X185.737Y-91.675
X185.737Y-110.725
X185.737Y-129.775
X190.737Y-51.375
X190.737Y-70.425
X190.737Y-89.475
X190.737Y-108.525
X190.737Y-127.575
X204.787Y-46.431
X204.787Y-65.481
X204.787Y-84.531
X204.787Y-104.219
X204.787Y-122.631
X209.787Y-44.231
X209.787Y-63.281
X209.787Y-82.331
X209.787Y-102.019
X209.787Y-120.431
X223.837Y-51.194
X223.837Y-70.244
X223.837Y-89.294
X223.837Y-108.344
X223.837Y-127.394
X228.837Y-48.994
X228.837Y-68.044
X228.837Y-87.094
X228.837Y-106.144
X228.837Y-125.194
X242.887Y-55.956
X242.887Y-75.006
X242.887Y-94.056
X242.887Y-113.106
X242.887Y-132.156
X247.887Y-53.756
X247.887Y-72.806
X247.887Y-91.856
X247.887Y-110.906
X247.887Y-129.956
X261.938Y-55.956
X261.938Y-75.006
X261.938Y-94.056
X261.938Y-113.106
X261.938Y-132.156
X266.938Y-53.756
X266.938Y-72.806
X266.938Y-91.856
X266.938Y-110.906
X266.938Y-129.956
T3
G00X68.656Y-18.212
M15
G01X69.956Y-18.212
M16
G05
G00X68.656Y-29.412
M15
G01X69.956Y-29.412
M16
G05
G00X237.725Y-18.212
M15
G01X239.025Y-18.212
M16
G05
G00X237.725Y-29.412
M15
G01X239.025Y-29.412
M16
G05
M30
