%TF.GenerationSoftware,KiCad,Pcbnew,9.0.5*%
%TF.CreationDate,2025-12-19T18:50:03-08:00*%
%TF.ProjectId,bluekeeb,626c7565-6b65-4656-922e-6b696361645f,rev?*%
%TF.SameCoordinates,Original*%
%TF.FileFunction,Profile,NP*%
%FSLAX46Y46*%
G04 Gerber Fmt 4.6, Leading zero omitted, Abs format (unit mm)*
G04 Created by KiCad (PCBNEW 9.0.5) date 2025-12-19 18:50:03*
%MOMM*%
%LPD*%
G01*
G04 APERTURE LIST*
%TA.AperFunction,Profile*%
%ADD10C,0.050000*%
%TD*%
G04 APERTURE END LIST*
D10*
X90000000Y-15000000D02*
X90007650Y-28627646D01*
X80000000Y-15000000D02*
X90000000Y-15000000D01*
X220000000Y-28500000D02*
X217000000Y-28500000D01*
X220000000Y-14500000D02*
X220000000Y-28500000D01*
X227000000Y-14500000D02*
X220000000Y-14500000D01*
X155995537Y-82500000D02*
X156000000Y-82500000D01*
X151000000Y-59750490D02*
G75*
G02*
X156000000Y-59750000I2500000J490D01*
G01*
X155995537Y-82500000D02*
G75*
G02*
X151004463Y-82500490I-2495537J0D01*
G01*
X151000000Y-59750490D02*
X151004463Y-82500490D01*
X156000000Y-82500000D02*
X156000000Y-59750000D01*
X151003742Y-92363265D02*
G75*
G02*
X156000000Y-92500000I2496258J-136735D01*
G01*
X156000000Y-115500000D02*
G75*
G02*
X151000000Y-115499596I-2500000J0D01*
G01*
X156000000Y-92500000D02*
X156000000Y-115500000D01*
X151000000Y-115499596D02*
X151003742Y-92363265D01*
X156000000Y-49750000D02*
G75*
G02*
X151000001Y-49747815I-2500000J0D01*
G01*
X156000000Y-41000000D02*
X156000000Y-49750000D01*
X151007649Y-41000000D02*
X151000002Y-49747815D01*
X151000000Y-125500000D02*
G75*
G02*
X156000000Y-125500000I2500000J0D01*
G01*
X156000000Y-140500000D02*
X156000000Y-125500000D01*
X151000000Y-141000000D02*
X151000000Y-125500000D01*
X248500000Y-14500000D02*
X248500000Y-18000000D01*
X227000000Y-14500000D02*
X248500000Y-14500000D01*
X58500000Y-15000000D02*
X58500000Y-18000000D01*
X80000000Y-15000000D02*
X58500000Y-15000000D01*
X128500000Y-141000000D02*
X151000000Y-141000000D01*
X128500000Y-138500000D02*
X128500000Y-141000000D01*
X26000000Y-138500000D02*
X128500000Y-138500000D01*
X26000000Y-18000000D02*
X26000000Y-138500000D01*
X29500000Y-18000000D02*
X26000000Y-18000000D01*
X58500000Y-18000000D02*
X29500000Y-18000000D01*
X151007649Y-41000000D02*
X148992350Y-41000000D01*
X178500000Y-138500000D02*
X178500000Y-140500000D01*
X279000000Y-138500000D02*
X178500000Y-138500000D01*
X279000000Y-136000000D02*
X279000000Y-138500000D01*
X156000000Y-140500000D02*
X178500000Y-140500000D01*
X251500000Y-18000000D02*
X248500000Y-18000000D01*
X134007650Y-41000000D02*
X134007650Y-40127646D01*
X115007650Y-35627646D02*
X134007650Y-35627646D01*
X115007650Y-28627646D02*
X115007650Y-35627646D01*
X148992350Y-41000000D02*
X134007650Y-41000000D01*
X90007650Y-28627646D02*
X115007650Y-28627646D01*
X279000000Y-18000000D02*
X251500000Y-18000000D01*
X134007650Y-35627646D02*
X134007650Y-40127646D01*
X279000000Y-136000000D02*
X279000000Y-18000000D01*
X156000000Y-41000000D02*
X173000000Y-41000000D01*
X173000000Y-41000000D02*
X173000000Y-35500000D01*
X192000000Y-28500000D02*
X192000000Y-35500000D01*
X192000000Y-35500000D02*
X173000000Y-35500000D01*
X217000000Y-28500000D02*
X192000000Y-28500000D01*
M02*
