%TF.GenerationSoftware,KiCad,Pcbnew,9.0.5*%
%TF.CreationDate,2025-12-19T18:50:02-08:00*%
%TF.ProjectId,bluekeeb,626c7565-6b65-4656-922e-6b696361645f,rev?*%
%TF.SameCoordinates,Original*%
%TF.FileFunction,Soldermask,Top*%
%TF.FilePolarity,Negative*%
%FSLAX46Y46*%
G04 Gerber Fmt 4.6, Leading zero omitted, Abs format (unit mm)*
G04 Created by KiCad (PCBNEW 9.0.5) date 2025-12-19 18:50:02*
%MOMM*%
%LPD*%
G01*
G04 APERTURE LIST*
G04 Aperture macros list*
%AMRoundRect*
0 Rectangle with rounded corners*
0 $1 Rounding radius*
0 $2 $3 $4 $5 $6 $7 $8 $9 X,Y pos of 4 corners*
0 Add a 4 corners polygon primitive as box body*
4,1,4,$2,$3,$4,$5,$6,$7,$8,$9,$2,$3,0*
0 Add four circle primitives for the rounded corners*
1,1,$1+$1,$2,$3*
1,1,$1+$1,$4,$5*
1,1,$1+$1,$6,$7*
1,1,$1+$1,$8,$9*
0 Add four rect primitives between the rounded corners*
20,1,$1+$1,$2,$3,$4,$5,0*
20,1,$1+$1,$4,$5,$6,$7,0*
20,1,$1+$1,$6,$7,$8,$9,0*
20,1,$1+$1,$8,$9,$2,$3,0*%
G04 Aperture macros list end*
%ADD10C,1.700000*%
%ADD11RoundRect,0.300400X-0.300400X1.000400X-0.300400X-1.000400X0.300400X-1.000400X0.300400X1.000400X0*%
%ADD12RoundRect,0.775400X0.775400X0.775400X-0.775400X0.775400X-0.775400X-0.775400X0.775400X-0.775400X0*%
%ADD13RoundRect,0.525400X-0.900400X-0.525400X0.900400X-0.525400X0.900400X0.525400X-0.900400X0.525400X0*%
%ADD14C,2.200000*%
%ADD15R,2.000000X2.000000*%
%ADD16C,2.000000*%
%ADD17R,3.200000X2.000000*%
%ADD18C,0.500000*%
%ADD19C,3.400000*%
%ADD20C,3.300000*%
%ADD21RoundRect,0.260000X-1.065000X-1.040000X1.065000X-1.040000X1.065000X1.040000X-1.065000X1.040000X0*%
%ADD22RoundRect,0.225000X0.375000X-0.225000X0.375000X0.225000X-0.375000X0.225000X-0.375000X-0.225000X0*%
G04 APERTURE END LIST*
D10*
%TO.C,U2*%
X265715000Y-22471500D03*
X263175000Y-22471500D03*
X265715000Y-19931500D03*
X263175000Y-19931500D03*
D11*
X270160000Y-37736900D03*
X268255000Y-37736900D03*
D12*
X260000000Y-25500000D03*
X260000000Y-28900000D03*
D13*
X272555000Y-20880000D03*
X272555000Y-23420000D03*
X272555000Y-25960000D03*
X272555000Y-28500000D03*
X272555000Y-31040000D03*
X272555000Y-33580000D03*
X272555000Y-36120000D03*
X256390000Y-36120000D03*
X256390000Y-33580000D03*
X256390000Y-31040000D03*
X256390000Y-28500000D03*
X256390000Y-25960000D03*
X256390000Y-23420000D03*
X256390000Y-20880000D03*
%TD*%
D14*
%TO.C,H19*%
X30500000Y-100500000D03*
%TD*%
%TO.C,H18*%
X275500000Y-89000000D03*
%TD*%
%TO.C,H17*%
X82500000Y-19500000D03*
%TD*%
%TO.C,H16*%
X226000000Y-18500000D03*
%TD*%
%TO.C,H15*%
X102500000Y-132500000D03*
%TD*%
%TO.C,H14*%
X205000000Y-132500000D03*
%TD*%
D15*
%TO.C,SW62*%
X230875000Y-21312500D03*
D16*
X230875000Y-26312500D03*
X230875000Y-23812500D03*
D17*
X238375000Y-18212500D03*
X238375000Y-29412500D03*
D16*
X245375000Y-26312500D03*
X245375000Y-21312500D03*
%TD*%
D15*
%TO.C,SW61*%
X61806250Y-21312500D03*
D16*
X61806250Y-26312500D03*
X61806250Y-23812500D03*
D17*
X69306250Y-18212500D03*
X69306250Y-29412500D03*
D16*
X76306250Y-26312500D03*
X76306250Y-21312500D03*
%TD*%
D18*
%TO.C,H1*%
X151000000Y-124250000D03*
X156000000Y-124250000D03*
X151000000Y-123500000D03*
X151000000Y-123500000D03*
X156000000Y-123500000D03*
X156000000Y-123500000D03*
X151000000Y-122750000D03*
X156000000Y-122750000D03*
X151000000Y-122000000D03*
X156000000Y-122000000D03*
X151000000Y-121250000D03*
X156000000Y-121250000D03*
X151000000Y-120500000D03*
X156000000Y-120500000D03*
X151000000Y-119750000D03*
X156000000Y-119750000D03*
X151000000Y-119000000D03*
X156000000Y-119000000D03*
X151000000Y-118250000D03*
X156000000Y-118250000D03*
X151000000Y-117500000D03*
X156000000Y-117500000D03*
X151000000Y-116750000D03*
X156000000Y-116750000D03*
%TD*%
%TO.C,H3*%
X151000000Y-91250000D03*
X156000000Y-91250000D03*
X151000000Y-90500000D03*
X151000000Y-90500000D03*
X156000000Y-90500000D03*
X156000000Y-90500000D03*
X151000000Y-89750000D03*
X156000000Y-89750000D03*
X151000000Y-89000000D03*
X156000000Y-89000000D03*
X151000000Y-88250000D03*
X156000000Y-88250000D03*
X151000000Y-87500000D03*
X156000000Y-87500000D03*
X151000000Y-86750000D03*
X156000000Y-86750000D03*
X151000000Y-86000000D03*
X156000000Y-86000000D03*
X151000000Y-85250000D03*
X156000000Y-85250000D03*
X151000000Y-84500000D03*
X156000000Y-84500000D03*
X151000000Y-83750000D03*
X156000000Y-83750000D03*
%TD*%
%TO.C,H5*%
X151000000Y-58500000D03*
X156000000Y-58500000D03*
X151000000Y-57750000D03*
X151000000Y-57750000D03*
X156000000Y-57750000D03*
X156000000Y-57750000D03*
X151000000Y-57000000D03*
X156000000Y-57000000D03*
X151000000Y-56250000D03*
X156000000Y-56250000D03*
X151000000Y-55500000D03*
X156000000Y-55500000D03*
X151000000Y-54750000D03*
X156000000Y-54750000D03*
X151000000Y-54000000D03*
X156000000Y-54000000D03*
X151000000Y-53250000D03*
X156000000Y-53250000D03*
X151000000Y-52500000D03*
X156000000Y-52500000D03*
X151000000Y-51750000D03*
X156000000Y-51750000D03*
X151000000Y-51000000D03*
X156000000Y-51000000D03*
%TD*%
D10*
%TO.C,SW1*%
X39743750Y-50006250D03*
D19*
X45243750Y-50006250D03*
D10*
X50743750Y-50006250D03*
D20*
X50243750Y-53756250D03*
D21*
X53488750Y-53756250D03*
X41998750Y-55956250D03*
D20*
X45243750Y-55956250D03*
%TD*%
D10*
%TO.C,SW2*%
X161187500Y-52387500D03*
D19*
X166687500Y-52387500D03*
D10*
X172187500Y-52387500D03*
D20*
X171687500Y-56137500D03*
D21*
X174932500Y-56137500D03*
X163442500Y-58337500D03*
D20*
X166687500Y-58337500D03*
%TD*%
D10*
%TO.C,SW3*%
X58793750Y-50006250D03*
D19*
X64293750Y-50006250D03*
D10*
X69793750Y-50006250D03*
D20*
X69293750Y-53756250D03*
D21*
X72538750Y-53756250D03*
X61048750Y-55956250D03*
D20*
X64293750Y-55956250D03*
%TD*%
D10*
%TO.C,SW4*%
X180237500Y-47625000D03*
D19*
X185737500Y-47625000D03*
D10*
X191237500Y-47625000D03*
D20*
X190737500Y-51375000D03*
D21*
X193982500Y-51375000D03*
X182492500Y-53575000D03*
D20*
X185737500Y-53575000D03*
%TD*%
D10*
%TO.C,SW5*%
X77843750Y-45243750D03*
D19*
X83343750Y-45243750D03*
D10*
X88843750Y-45243750D03*
D20*
X88343750Y-48993750D03*
D21*
X91588750Y-48993750D03*
X80098750Y-51193750D03*
D20*
X83343750Y-51193750D03*
%TD*%
D10*
%TO.C,SW6*%
X199287500Y-40481250D03*
D19*
X204787500Y-40481250D03*
D10*
X210287500Y-40481250D03*
D20*
X209787500Y-44231250D03*
D21*
X213032500Y-44231250D03*
X201542500Y-46431250D03*
D20*
X204787500Y-46431250D03*
%TD*%
D10*
%TO.C,SW7*%
X96893750Y-40481250D03*
D19*
X102393750Y-40481250D03*
D10*
X107893750Y-40481250D03*
D20*
X107393750Y-44231250D03*
D21*
X110638750Y-44231250D03*
X99148750Y-46431250D03*
D20*
X102393750Y-46431250D03*
%TD*%
D10*
%TO.C,SW8*%
X218337500Y-45243750D03*
D19*
X223837500Y-45243750D03*
D10*
X229337500Y-45243750D03*
D20*
X228837500Y-48993750D03*
D21*
X232082500Y-48993750D03*
X220592500Y-51193750D03*
D20*
X223837500Y-51193750D03*
%TD*%
D10*
%TO.C,SW9*%
X115943750Y-47625000D03*
D19*
X121443750Y-47625000D03*
D10*
X126943750Y-47625000D03*
D20*
X126443750Y-51375000D03*
D21*
X129688750Y-51375000D03*
X118198750Y-53575000D03*
D20*
X121443750Y-53575000D03*
%TD*%
D10*
%TO.C,SW10*%
X237387500Y-50006250D03*
D19*
X242887500Y-50006250D03*
D10*
X248387500Y-50006250D03*
D20*
X247887500Y-53756250D03*
D21*
X251132500Y-53756250D03*
X239642500Y-55956250D03*
D20*
X242887500Y-55956250D03*
%TD*%
D10*
%TO.C,SW11*%
X134993750Y-52387500D03*
D19*
X140493750Y-52387500D03*
D10*
X145993750Y-52387500D03*
D20*
X145493750Y-56137500D03*
D21*
X148738750Y-56137500D03*
X137248750Y-58337500D03*
D20*
X140493750Y-58337500D03*
%TD*%
D10*
%TO.C,SW12*%
X256437500Y-50006250D03*
D19*
X261937500Y-50006250D03*
D10*
X267437500Y-50006250D03*
D20*
X266937500Y-53756250D03*
D21*
X270182500Y-53756250D03*
X258692500Y-55956250D03*
D20*
X261937500Y-55956250D03*
%TD*%
D10*
%TO.C,SW13*%
X39743750Y-69056250D03*
D19*
X45243750Y-69056250D03*
D10*
X50743750Y-69056250D03*
D20*
X50243750Y-72806250D03*
D21*
X53488750Y-72806250D03*
X41998750Y-75006250D03*
D20*
X45243750Y-75006250D03*
%TD*%
D10*
%TO.C,SW14*%
X161187500Y-71437500D03*
D19*
X166687500Y-71437500D03*
D10*
X172187500Y-71437500D03*
D20*
X171687500Y-75187500D03*
D21*
X174932500Y-75187500D03*
X163442500Y-77387500D03*
D20*
X166687500Y-77387500D03*
%TD*%
D10*
%TO.C,SW15*%
X39743750Y-88106250D03*
D19*
X45243750Y-88106250D03*
D10*
X50743750Y-88106250D03*
D20*
X50243750Y-91856250D03*
D21*
X53488750Y-91856250D03*
X41998750Y-94056250D03*
D20*
X45243750Y-94056250D03*
%TD*%
D10*
%TO.C,SW16*%
X161187500Y-90487500D03*
D19*
X166687500Y-90487500D03*
D10*
X172187500Y-90487500D03*
D20*
X171687500Y-94237500D03*
D21*
X174932500Y-94237500D03*
X163442500Y-96437500D03*
D20*
X166687500Y-96437500D03*
%TD*%
D10*
%TO.C,SW17*%
X39743750Y-107156250D03*
D19*
X45243750Y-107156250D03*
D10*
X50743750Y-107156250D03*
D20*
X50243750Y-110906250D03*
D21*
X53488750Y-110906250D03*
X41998750Y-113106250D03*
D20*
X45243750Y-113106250D03*
%TD*%
D10*
%TO.C,SW18*%
X161187500Y-109537500D03*
D19*
X166687500Y-109537500D03*
D10*
X172187500Y-109537500D03*
D20*
X171687500Y-113287500D03*
D21*
X174932500Y-113287500D03*
X163442500Y-115487500D03*
D20*
X166687500Y-115487500D03*
%TD*%
D10*
%TO.C,SW19*%
X39743750Y-126206250D03*
D19*
X45243750Y-126206250D03*
D10*
X50743750Y-126206250D03*
D20*
X50243750Y-129956250D03*
D21*
X53488750Y-129956250D03*
X41998750Y-132156250D03*
D20*
X45243750Y-132156250D03*
%TD*%
D10*
%TO.C,SW20*%
X161187500Y-128587500D03*
D19*
X166687500Y-128587500D03*
D10*
X172187500Y-128587500D03*
D20*
X171687500Y-132337500D03*
D21*
X174932500Y-132337500D03*
X163442500Y-134537500D03*
D20*
X166687500Y-134537500D03*
%TD*%
D10*
%TO.C,SW21*%
X58793750Y-69056250D03*
D19*
X64293750Y-69056250D03*
D10*
X69793750Y-69056250D03*
D20*
X69293750Y-72806250D03*
D21*
X72538750Y-72806250D03*
X61048750Y-75006250D03*
D20*
X64293750Y-75006250D03*
%TD*%
D10*
%TO.C,SW22*%
X180237500Y-66675000D03*
D19*
X185737500Y-66675000D03*
D10*
X191237500Y-66675000D03*
D20*
X190737500Y-70425000D03*
D21*
X193982500Y-70425000D03*
X182492500Y-72625000D03*
D20*
X185737500Y-72625000D03*
%TD*%
D10*
%TO.C,SW23*%
X58793750Y-88106250D03*
D19*
X64293750Y-88106250D03*
D10*
X69793750Y-88106250D03*
D20*
X69293750Y-91856250D03*
D21*
X72538750Y-91856250D03*
X61048750Y-94056250D03*
D20*
X64293750Y-94056250D03*
%TD*%
D10*
%TO.C,SW24*%
X180237500Y-85725000D03*
D19*
X185737500Y-85725000D03*
D10*
X191237500Y-85725000D03*
D20*
X190737500Y-89475000D03*
D21*
X193982500Y-89475000D03*
X182492500Y-91675000D03*
D20*
X185737500Y-91675000D03*
%TD*%
D10*
%TO.C,SW25*%
X58793750Y-107156250D03*
D19*
X64293750Y-107156250D03*
D10*
X69793750Y-107156250D03*
D20*
X69293750Y-110906250D03*
D21*
X72538750Y-110906250D03*
X61048750Y-113106250D03*
D20*
X64293750Y-113106250D03*
%TD*%
D10*
%TO.C,SW26*%
X180237500Y-104775000D03*
D19*
X185737500Y-104775000D03*
D10*
X191237500Y-104775000D03*
D20*
X190737500Y-108525000D03*
D21*
X193982500Y-108525000D03*
X182492500Y-110725000D03*
D20*
X185737500Y-110725000D03*
%TD*%
D10*
%TO.C,SW27*%
X58793750Y-126206250D03*
D19*
X64293750Y-126206250D03*
D10*
X69793750Y-126206250D03*
D20*
X69293750Y-129956250D03*
D21*
X72538750Y-129956250D03*
X61048750Y-132156250D03*
D20*
X64293750Y-132156250D03*
%TD*%
D10*
%TO.C,SW28*%
X180237500Y-123825000D03*
D19*
X185737500Y-123825000D03*
D10*
X191237500Y-123825000D03*
D20*
X190737500Y-127575000D03*
D21*
X193982500Y-127575000D03*
X182492500Y-129775000D03*
D20*
X185737500Y-129775000D03*
%TD*%
D10*
%TO.C,SW29*%
X77843750Y-64293750D03*
D19*
X83343750Y-64293750D03*
D10*
X88843750Y-64293750D03*
D20*
X88343750Y-68043750D03*
D21*
X91588750Y-68043750D03*
X80098750Y-70243750D03*
D20*
X83343750Y-70243750D03*
%TD*%
D10*
%TO.C,SW30*%
X199287500Y-59531250D03*
D19*
X204787500Y-59531250D03*
D10*
X210287500Y-59531250D03*
D20*
X209787500Y-63281250D03*
D21*
X213032500Y-63281250D03*
X201542500Y-65481250D03*
D20*
X204787500Y-65481250D03*
%TD*%
D10*
%TO.C,SW31*%
X77843750Y-83343750D03*
D19*
X83343750Y-83343750D03*
D10*
X88843750Y-83343750D03*
D20*
X88343750Y-87093750D03*
D21*
X91588750Y-87093750D03*
X80098750Y-89293750D03*
D20*
X83343750Y-89293750D03*
%TD*%
D10*
%TO.C,SW32*%
X199287500Y-78581250D03*
D19*
X204787500Y-78581250D03*
D10*
X210287500Y-78581250D03*
D20*
X209787500Y-82331250D03*
D21*
X213032500Y-82331250D03*
X201542500Y-84531250D03*
D20*
X204787500Y-84531250D03*
%TD*%
D10*
%TO.C,SW33*%
X77843750Y-102393750D03*
D19*
X83343750Y-102393750D03*
D10*
X88843750Y-102393750D03*
D20*
X88343750Y-106143750D03*
D21*
X91588750Y-106143750D03*
X80098750Y-108343750D03*
D20*
X83343750Y-108343750D03*
%TD*%
D10*
%TO.C,SW34*%
X199287500Y-98268750D03*
D19*
X204787500Y-98268750D03*
D10*
X210287500Y-98268750D03*
D20*
X209787500Y-102018750D03*
D21*
X213032500Y-102018750D03*
X201542500Y-104218750D03*
D20*
X204787500Y-104218750D03*
%TD*%
D10*
%TO.C,SW35*%
X77843750Y-121443750D03*
D19*
X83343750Y-121443750D03*
D10*
X88843750Y-121443750D03*
D20*
X88343750Y-125193750D03*
D21*
X91588750Y-125193750D03*
X80098750Y-127393750D03*
D20*
X83343750Y-127393750D03*
%TD*%
D10*
%TO.C,SW36*%
X199287500Y-116681250D03*
D19*
X204787500Y-116681250D03*
D10*
X210287500Y-116681250D03*
D20*
X209787500Y-120431250D03*
D21*
X213032500Y-120431250D03*
X201542500Y-122631250D03*
D20*
X204787500Y-122631250D03*
%TD*%
D10*
%TO.C,SW37*%
X96893750Y-59531250D03*
D19*
X102393750Y-59531250D03*
D10*
X107893750Y-59531250D03*
D20*
X107393750Y-63281250D03*
D21*
X110638750Y-63281250D03*
X99148750Y-65481250D03*
D20*
X102393750Y-65481250D03*
%TD*%
D10*
%TO.C,SW38*%
X218337500Y-64293750D03*
D19*
X223837500Y-64293750D03*
D10*
X229337500Y-64293750D03*
D20*
X228837500Y-68043750D03*
D21*
X232082500Y-68043750D03*
X220592500Y-70243750D03*
D20*
X223837500Y-70243750D03*
%TD*%
D10*
%TO.C,SW39*%
X96893750Y-78581250D03*
D19*
X102393750Y-78581250D03*
D10*
X107893750Y-78581250D03*
D20*
X107393750Y-82331250D03*
D21*
X110638750Y-82331250D03*
X99148750Y-84531250D03*
D20*
X102393750Y-84531250D03*
%TD*%
D10*
%TO.C,SW40*%
X218337500Y-83343750D03*
D19*
X223837500Y-83343750D03*
D10*
X229337500Y-83343750D03*
D20*
X228837500Y-87093750D03*
D21*
X232082500Y-87093750D03*
X220592500Y-89293750D03*
D20*
X223837500Y-89293750D03*
%TD*%
D10*
%TO.C,SW41*%
X96893750Y-97631250D03*
D19*
X102393750Y-97631250D03*
D10*
X107893750Y-97631250D03*
D20*
X107393750Y-101381250D03*
D21*
X110638750Y-101381250D03*
X99148750Y-103581250D03*
D20*
X102393750Y-103581250D03*
%TD*%
D10*
%TO.C,SW42*%
X218337500Y-102393750D03*
D19*
X223837500Y-102393750D03*
D10*
X229337500Y-102393750D03*
D20*
X228837500Y-106143750D03*
D21*
X232082500Y-106143750D03*
X220592500Y-108343750D03*
D20*
X223837500Y-108343750D03*
%TD*%
D10*
%TO.C,SW43*%
X96893750Y-116681250D03*
D19*
X102393750Y-116681250D03*
D10*
X107893750Y-116681250D03*
D20*
X107393750Y-120431250D03*
D21*
X110638750Y-120431250D03*
X99148750Y-122631250D03*
D20*
X102393750Y-122631250D03*
%TD*%
D10*
%TO.C,SW44*%
X218337500Y-121443750D03*
D19*
X223837500Y-121443750D03*
D10*
X229337500Y-121443750D03*
D20*
X228837500Y-125193750D03*
D21*
X232082500Y-125193750D03*
X220592500Y-127393750D03*
D20*
X223837500Y-127393750D03*
%TD*%
D10*
%TO.C,SW45*%
X115943750Y-66675000D03*
D19*
X121443750Y-66675000D03*
D10*
X126943750Y-66675000D03*
D20*
X126443750Y-70425000D03*
D21*
X129688750Y-70425000D03*
X118198750Y-72625000D03*
D20*
X121443750Y-72625000D03*
%TD*%
D10*
%TO.C,SW46*%
X237387500Y-69056250D03*
D19*
X242887500Y-69056250D03*
D10*
X248387500Y-69056250D03*
D20*
X247887500Y-72806250D03*
D21*
X251132500Y-72806250D03*
X239642500Y-75006250D03*
D20*
X242887500Y-75006250D03*
%TD*%
D10*
%TO.C,SW47*%
X115943750Y-85725000D03*
D19*
X121443750Y-85725000D03*
D10*
X126943750Y-85725000D03*
D20*
X126443750Y-89475000D03*
D21*
X129688750Y-89475000D03*
X118198750Y-91675000D03*
D20*
X121443750Y-91675000D03*
%TD*%
D10*
%TO.C,SW48*%
X237387500Y-88106250D03*
D19*
X242887500Y-88106250D03*
D10*
X248387500Y-88106250D03*
D20*
X247887500Y-91856250D03*
D21*
X251132500Y-91856250D03*
X239642500Y-94056250D03*
D20*
X242887500Y-94056250D03*
%TD*%
D10*
%TO.C,SW49*%
X115943750Y-104775000D03*
D19*
X121443750Y-104775000D03*
D10*
X126943750Y-104775000D03*
D20*
X126443750Y-108525000D03*
D21*
X129688750Y-108525000D03*
X118198750Y-110725000D03*
D20*
X121443750Y-110725000D03*
%TD*%
D10*
%TO.C,SW50*%
X237387500Y-107156250D03*
D19*
X242887500Y-107156250D03*
D10*
X248387500Y-107156250D03*
D20*
X247887500Y-110906250D03*
D21*
X251132500Y-110906250D03*
X239642500Y-113106250D03*
D20*
X242887500Y-113106250D03*
%TD*%
D10*
%TO.C,SW51*%
X115943750Y-123825000D03*
D19*
X121443750Y-123825000D03*
D10*
X126943750Y-123825000D03*
D20*
X126443750Y-127575000D03*
D21*
X129688750Y-127575000D03*
X118198750Y-129775000D03*
D20*
X121443750Y-129775000D03*
%TD*%
D10*
%TO.C,SW52*%
X237387500Y-126206250D03*
D19*
X242887500Y-126206250D03*
D10*
X248387500Y-126206250D03*
D20*
X247887500Y-129956250D03*
D21*
X251132500Y-129956250D03*
X239642500Y-132156250D03*
D20*
X242887500Y-132156250D03*
%TD*%
D10*
%TO.C,SW53*%
X134993750Y-71437500D03*
D19*
X140493750Y-71437500D03*
D10*
X145993750Y-71437500D03*
D20*
X145493750Y-75187500D03*
D21*
X148738750Y-75187500D03*
X137248750Y-77387500D03*
D20*
X140493750Y-77387500D03*
%TD*%
D10*
%TO.C,SW54*%
X256437500Y-69056250D03*
D19*
X261937500Y-69056250D03*
D10*
X267437500Y-69056250D03*
D20*
X266937500Y-72806250D03*
D21*
X270182500Y-72806250D03*
X258692500Y-75006250D03*
D20*
X261937500Y-75006250D03*
%TD*%
D10*
%TO.C,SW55*%
X134993750Y-90487500D03*
D19*
X140493750Y-90487500D03*
D10*
X145993750Y-90487500D03*
D20*
X145493750Y-94237500D03*
D21*
X148738750Y-94237500D03*
X137248750Y-96437500D03*
D20*
X140493750Y-96437500D03*
%TD*%
D10*
%TO.C,SW56*%
X256437500Y-88106250D03*
D19*
X261937500Y-88106250D03*
D10*
X267437500Y-88106250D03*
D20*
X266937500Y-91856250D03*
D21*
X270182500Y-91856250D03*
X258692500Y-94056250D03*
D20*
X261937500Y-94056250D03*
%TD*%
D10*
%TO.C,SW57*%
X134993750Y-109537500D03*
D19*
X140493750Y-109537500D03*
D10*
X145993750Y-109537500D03*
D20*
X145493750Y-113287500D03*
D21*
X148738750Y-113287500D03*
X137248750Y-115487500D03*
D20*
X140493750Y-115487500D03*
%TD*%
D10*
%TO.C,SW58*%
X256437500Y-107156250D03*
D19*
X261937500Y-107156250D03*
D10*
X267437500Y-107156250D03*
D20*
X266937500Y-110906250D03*
D21*
X270182500Y-110906250D03*
X258692500Y-113106250D03*
D20*
X261937500Y-113106250D03*
%TD*%
D10*
%TO.C,SW59*%
X134993750Y-128587500D03*
D19*
X140493750Y-128587500D03*
D10*
X145993750Y-128587500D03*
D20*
X145493750Y-132337500D03*
D21*
X148738750Y-132337500D03*
X137248750Y-134537500D03*
D20*
X140493750Y-134537500D03*
%TD*%
D10*
%TO.C,SW60*%
X256437500Y-126206250D03*
D19*
X261937500Y-126206250D03*
D10*
X267437500Y-126206250D03*
D20*
X266937500Y-129956250D03*
D21*
X270182500Y-129956250D03*
X258692500Y-132156250D03*
D20*
X261937500Y-132156250D03*
%TD*%
D13*
%TO.C,U1*%
X36390000Y-20880000D03*
X36390000Y-23420000D03*
X36390000Y-25960000D03*
X36390000Y-28500000D03*
X36390000Y-31040000D03*
X36390000Y-33580000D03*
X36390000Y-36120000D03*
X52555000Y-36120000D03*
X52555000Y-33580000D03*
X52555000Y-31040000D03*
X52555000Y-28500000D03*
X52555000Y-25960000D03*
X52555000Y-23420000D03*
X52555000Y-20880000D03*
D12*
X40000000Y-28900000D03*
X40000000Y-25500000D03*
D11*
X48255000Y-37736900D03*
X50160000Y-37736900D03*
D10*
X43175000Y-19931500D03*
X45715000Y-19931500D03*
X43175000Y-22471500D03*
X45715000Y-22471500D03*
%TD*%
D22*
%TO.C,D52*%
X237000000Y-123150000D03*
X237000000Y-119850000D03*
%TD*%
%TO.C,D37*%
X96106250Y-57050000D03*
X96106250Y-53750000D03*
%TD*%
%TO.C,D14*%
X160750000Y-68931250D03*
X160750000Y-65631250D03*
%TD*%
%TO.C,D43*%
X96206250Y-113393750D03*
X96206250Y-110093750D03*
%TD*%
%TO.C,D3*%
X58500000Y-47362500D03*
X58500000Y-44062500D03*
%TD*%
D16*
%TO.C,TP2*%
X226000000Y-30500000D03*
%TD*%
D22*
%TO.C,D5*%
X77156250Y-42906250D03*
X77156250Y-39606250D03*
%TD*%
%TO.C,D46*%
X236993750Y-66631250D03*
X236993750Y-63331250D03*
%TD*%
%TO.C,D50*%
X236543750Y-104125000D03*
X236543750Y-100825000D03*
%TD*%
%TO.C,D26*%
X179943750Y-102581250D03*
X179943750Y-99281250D03*
%TD*%
%TO.C,D35*%
X77506250Y-118750000D03*
X77506250Y-115450000D03*
%TD*%
%TO.C,D48*%
X237043750Y-85775000D03*
X237043750Y-82475000D03*
%TD*%
D16*
%TO.C,TP4*%
X226000000Y-24500000D03*
%TD*%
D22*
%TO.C,D39*%
X96106250Y-76550000D03*
X96106250Y-73250000D03*
%TD*%
%TO.C,D7*%
X96450000Y-38093750D03*
X96450000Y-34793750D03*
%TD*%
%TO.C,D16*%
X160350000Y-88343750D03*
X160350000Y-85043750D03*
%TD*%
%TO.C,D38*%
X218043750Y-61700000D03*
X218043750Y-58400000D03*
%TD*%
%TO.C,D17*%
X39556250Y-104768750D03*
X39556250Y-101468750D03*
%TD*%
%TO.C,D59*%
X134500000Y-125150000D03*
X134500000Y-121850000D03*
%TD*%
%TO.C,D4*%
X179500000Y-44300000D03*
X179500000Y-41000000D03*
%TD*%
%TO.C,D33*%
X77350000Y-99606250D03*
X77350000Y-96306250D03*
%TD*%
%TO.C,D51*%
X115500000Y-120650000D03*
X115500000Y-117350000D03*
%TD*%
%TO.C,D29*%
X77106250Y-61618750D03*
X77106250Y-58318750D03*
%TD*%
%TO.C,D22*%
X179943750Y-64081250D03*
X179943750Y-60781250D03*
%TD*%
%TO.C,D32*%
X198943750Y-75750000D03*
X198943750Y-72450000D03*
%TD*%
%TO.C,D45*%
X115556250Y-63718750D03*
X115556250Y-60418750D03*
%TD*%
D16*
%TO.C,TP3*%
X82500000Y-26000000D03*
%TD*%
D22*
%TO.C,D27*%
X58556250Y-123081250D03*
X58556250Y-119781250D03*
%TD*%
%TO.C,D10*%
X237143750Y-47500000D03*
X237143750Y-44200000D03*
%TD*%
%TO.C,D54*%
X255693750Y-66650000D03*
X255693750Y-63350000D03*
%TD*%
%TO.C,D53*%
X134256250Y-68912500D03*
X134256250Y-65612500D03*
%TD*%
%TO.C,D49*%
X115606250Y-102481250D03*
X115606250Y-99181250D03*
%TD*%
%TO.C,D23*%
X58400000Y-85581250D03*
X58400000Y-82281250D03*
%TD*%
%TO.C,D18*%
X159493750Y-106581250D03*
X159493750Y-103281250D03*
%TD*%
%TO.C,D42*%
X217943750Y-99918750D03*
X217943750Y-96618750D03*
%TD*%
%TO.C,D36*%
X198943750Y-114250000D03*
X198943750Y-110950000D03*
%TD*%
%TO.C,D44*%
X218143750Y-119037500D03*
X218143750Y-115737500D03*
%TD*%
%TO.C,D58*%
X256043750Y-104681250D03*
X256043750Y-101381250D03*
%TD*%
%TO.C,D15*%
X39006250Y-85531250D03*
X39006250Y-82231250D03*
%TD*%
%TO.C,D8*%
X217643750Y-42737500D03*
X217643750Y-39437500D03*
%TD*%
%TO.C,D47*%
X115606250Y-82981250D03*
X115606250Y-79681250D03*
%TD*%
%TO.C,D56*%
X255993750Y-85268750D03*
X255993750Y-81968750D03*
%TD*%
%TO.C,D40*%
X218043750Y-80550000D03*
X218043750Y-77250000D03*
%TD*%
%TO.C,D20*%
X160493750Y-126031250D03*
X160493750Y-122731250D03*
%TD*%
%TO.C,D57*%
X134606250Y-107031250D03*
X134606250Y-103731250D03*
%TD*%
%TO.C,D25*%
X58006250Y-104725000D03*
X58006250Y-101425000D03*
%TD*%
%TO.C,D30*%
X199043750Y-56975000D03*
X199043750Y-53675000D03*
%TD*%
%TO.C,D19*%
X39556250Y-123768750D03*
X39556250Y-120468750D03*
%TD*%
%TO.C,D13*%
X39400000Y-66675000D03*
X39400000Y-63375000D03*
%TD*%
%TO.C,D41*%
X96006250Y-95275000D03*
X96006250Y-91975000D03*
%TD*%
%TO.C,D1*%
X39000000Y-46650000D03*
X39000000Y-43350000D03*
%TD*%
%TO.C,D31*%
X77506250Y-80750000D03*
X77506250Y-77450000D03*
%TD*%
%TO.C,D9*%
X116000000Y-45187500D03*
X116000000Y-41887500D03*
%TD*%
%TO.C,D24*%
X179800000Y-83268750D03*
X179800000Y-79968750D03*
%TD*%
%TO.C,D6*%
X198500000Y-37750000D03*
X198500000Y-34450000D03*
%TD*%
%TO.C,D34*%
X198656250Y-95018750D03*
X198656250Y-91718750D03*
%TD*%
%TO.C,D21*%
X58006250Y-66725000D03*
X58006250Y-63425000D03*
%TD*%
%TO.C,D12*%
X255500000Y-46650000D03*
X255500000Y-43350000D03*
%TD*%
%TO.C,D11*%
X134500000Y-49150000D03*
X134500000Y-45850000D03*
%TD*%
%TO.C,D55*%
X134106250Y-88081250D03*
X134106250Y-84781250D03*
%TD*%
D16*
%TO.C,TP1*%
X82500000Y-31000000D03*
%TD*%
D22*
%TO.C,D60*%
X256000000Y-123150000D03*
X256000000Y-119850000D03*
%TD*%
%TO.C,D28*%
X179993750Y-121368750D03*
X179993750Y-118068750D03*
%TD*%
%TO.C,D2*%
X160500000Y-49150000D03*
X160500000Y-45850000D03*
%TD*%
M02*
