%TF.GenerationSoftware,KiCad,Pcbnew,9.0.5*%
%TF.CreationDate,2025-12-19T18:50:02-08:00*%
%TF.ProjectId,bluekeeb,626c7565-6b65-4656-922e-6b696361645f,rev?*%
%TF.SameCoordinates,Original*%
%TF.FileFunction,Copper,L2,Bot*%
%TF.FilePolarity,Positive*%
%FSLAX46Y46*%
G04 Gerber Fmt 4.6, Leading zero omitted, Abs format (unit mm)*
G04 Created by KiCad (PCBNEW 9.0.5) date 2025-12-19 18:50:02*
%MOMM*%
%LPD*%
G01*
G04 APERTURE LIST*
G04 Aperture macros list*
%AMRoundRect*
0 Rectangle with rounded corners*
0 $1 Rounding radius*
0 $2 $3 $4 $5 $6 $7 $8 $9 X,Y pos of 4 corners*
0 Add a 4 corners polygon primitive as box body*
4,1,4,$2,$3,$4,$5,$6,$7,$8,$9,$2,$3,0*
0 Add four circle primitives for the rounded corners*
1,1,$1+$1,$2,$3*
1,1,$1+$1,$4,$5*
1,1,$1+$1,$6,$7*
1,1,$1+$1,$8,$9*
0 Add four rect primitives between the rounded corners*
20,1,$1+$1,$2,$3,$4,$5,0*
20,1,$1+$1,$4,$5,$6,$7,0*
20,1,$1+$1,$6,$7,$8,$9,0*
20,1,$1+$1,$8,$9,$2,$3,0*%
G04 Aperture macros list end*
%TA.AperFunction,ComponentPad*%
%ADD10RoundRect,0.750000X0.750000X0.750000X-0.750000X0.750000X-0.750000X-0.750000X0.750000X-0.750000X0*%
%TD*%
%TA.AperFunction,ComponentPad*%
%ADD11R,2.000000X2.000000*%
%TD*%
%TA.AperFunction,ComponentPad*%
%ADD12C,2.000000*%
%TD*%
%TA.AperFunction,ComponentPad*%
%ADD13R,3.200000X2.000000*%
%TD*%
%TA.AperFunction,ComponentPad*%
%ADD14C,3.300000*%
%TD*%
%TA.AperFunction,ViaPad*%
%ADD15C,0.600000*%
%TD*%
%TA.AperFunction,Conductor*%
%ADD16C,0.200000*%
%TD*%
G04 APERTURE END LIST*
D10*
%TO.P,U2,16,GND*%
%TO.N,GND*%
X260000000Y-25500000D03*
%TO.P,U2,15,BAT*%
%TO.N,/right/vbat*%
X260000000Y-28900000D03*
%TD*%
D11*
%TO.P,SW62,A,A*%
%TO.N,Net-(U2-NFC1)*%
X230875000Y-21312500D03*
D12*
%TO.P,SW62,B,B*%
%TO.N,Net-(U2-NFC2)*%
X230875000Y-26312500D03*
%TO.P,SW62,C,C*%
%TO.N,Net-(SW62-PadC)*%
X230875000Y-23812500D03*
D13*
%TO.P,SW62,MP*%
%TO.N,N/C*%
X238375000Y-18212500D03*
X238375000Y-29412500D03*
D12*
%TO.P,SW62,S1*%
X245375000Y-26312500D03*
%TO.P,SW62,S2*%
X245375000Y-21312500D03*
%TD*%
D11*
%TO.P,SW61,A,A*%
%TO.N,Net-(U1-NFC1)*%
X61806250Y-21312500D03*
D12*
%TO.P,SW61,B,B*%
%TO.N,Net-(U1-NFC2)*%
X61806250Y-26312500D03*
%TO.P,SW61,C,C*%
%TO.N,Net-(SW61-PadC)*%
X61806250Y-23812500D03*
D13*
%TO.P,SW61,MP*%
%TO.N,N/C*%
X69306250Y-18212500D03*
X69306250Y-29412500D03*
D12*
%TO.P,SW61,S1*%
X76306250Y-26312500D03*
%TO.P,SW61,S2*%
X76306250Y-21312500D03*
%TD*%
D14*
%TO.P,SW1,1,1*%
%TO.N,/left/col0*%
X50243750Y-53756250D03*
%TO.P,SW1,2,2*%
%TO.N,Net-(D1-A)*%
X45243750Y-55956250D03*
%TD*%
%TO.P,SW2,1,1*%
%TO.N,/right/col0*%
X171687500Y-56137500D03*
%TO.P,SW2,2,2*%
%TO.N,Net-(D2-A)*%
X166687500Y-58337500D03*
%TD*%
%TO.P,SW3,1,1*%
%TO.N,/left/col1*%
X69293750Y-53756250D03*
%TO.P,SW3,2,2*%
%TO.N,Net-(D3-A)*%
X64293750Y-55956250D03*
%TD*%
%TO.P,SW4,1,1*%
%TO.N,/right/col1*%
X190737500Y-51375000D03*
%TO.P,SW4,2,2*%
%TO.N,Net-(D4-A)*%
X185737500Y-53575000D03*
%TD*%
%TO.P,SW5,1,1*%
%TO.N,/left/col2*%
X88343750Y-48993750D03*
%TO.P,SW5,2,2*%
%TO.N,Net-(D5-A)*%
X83343750Y-51193750D03*
%TD*%
%TO.P,SW6,1,1*%
%TO.N,/right/col2*%
X209787500Y-44231250D03*
%TO.P,SW6,2,2*%
%TO.N,Net-(D6-A)*%
X204787500Y-46431250D03*
%TD*%
%TO.P,SW7,1,1*%
%TO.N,/left/col3*%
X107393750Y-44231250D03*
%TO.P,SW7,2,2*%
%TO.N,Net-(D7-A)*%
X102393750Y-46431250D03*
%TD*%
%TO.P,SW8,1,1*%
%TO.N,/right/col3*%
X228837500Y-48993750D03*
%TO.P,SW8,2,2*%
%TO.N,Net-(D8-A)*%
X223837500Y-51193750D03*
%TD*%
%TO.P,SW9,1,1*%
%TO.N,/left/col4*%
X126443750Y-51375000D03*
%TO.P,SW9,2,2*%
%TO.N,Net-(D9-A)*%
X121443750Y-53575000D03*
%TD*%
%TO.P,SW10,1,1*%
%TO.N,/right/col4*%
X247887500Y-53756250D03*
%TO.P,SW10,2,2*%
%TO.N,Net-(D10-A)*%
X242887500Y-55956250D03*
%TD*%
%TO.P,SW11,1,1*%
%TO.N,/left/col5*%
X145493750Y-56137500D03*
%TO.P,SW11,2,2*%
%TO.N,Net-(D11-A)*%
X140493750Y-58337500D03*
%TD*%
%TO.P,SW12,1,1*%
%TO.N,/right/col5*%
X266937500Y-53756250D03*
%TO.P,SW12,2,2*%
%TO.N,Net-(D12-A)*%
X261937500Y-55956250D03*
%TD*%
%TO.P,SW13,1,1*%
%TO.N,/left/col0*%
X50243750Y-72806250D03*
%TO.P,SW13,2,2*%
%TO.N,Net-(D13-A)*%
X45243750Y-75006250D03*
%TD*%
%TO.P,SW14,1,1*%
%TO.N,/right/col0*%
X171687500Y-75187500D03*
%TO.P,SW14,2,2*%
%TO.N,Net-(D14-A)*%
X166687500Y-77387500D03*
%TD*%
%TO.P,SW15,1,1*%
%TO.N,/left/col0*%
X50243750Y-91856250D03*
%TO.P,SW15,2,2*%
%TO.N,Net-(D15-A)*%
X45243750Y-94056250D03*
%TD*%
%TO.P,SW16,1,1*%
%TO.N,/right/col0*%
X171687500Y-94237500D03*
%TO.P,SW16,2,2*%
%TO.N,Net-(D16-A)*%
X166687500Y-96437500D03*
%TD*%
%TO.P,SW17,1,1*%
%TO.N,/left/col0*%
X50243750Y-110906250D03*
%TO.P,SW17,2,2*%
%TO.N,Net-(D17-A)*%
X45243750Y-113106250D03*
%TD*%
%TO.P,SW18,1,1*%
%TO.N,/right/col0*%
X171687500Y-113287500D03*
%TO.P,SW18,2,2*%
%TO.N,Net-(D18-A)*%
X166687500Y-115487500D03*
%TD*%
%TO.P,SW19,1,1*%
%TO.N,/left/col0*%
X50243750Y-129956250D03*
%TO.P,SW19,2,2*%
%TO.N,Net-(D19-A)*%
X45243750Y-132156250D03*
%TD*%
%TO.P,SW20,1,1*%
%TO.N,/right/col0*%
X171687500Y-132337500D03*
%TO.P,SW20,2,2*%
%TO.N,Net-(D20-A)*%
X166687500Y-134537500D03*
%TD*%
%TO.P,SW21,1,1*%
%TO.N,/left/col1*%
X69293750Y-72806250D03*
%TO.P,SW21,2,2*%
%TO.N,Net-(D21-A)*%
X64293750Y-75006250D03*
%TD*%
%TO.P,SW22,1,1*%
%TO.N,/right/col1*%
X190737500Y-70425000D03*
%TO.P,SW22,2,2*%
%TO.N,Net-(D22-A)*%
X185737500Y-72625000D03*
%TD*%
%TO.P,SW23,1,1*%
%TO.N,/left/col1*%
X69293750Y-91856250D03*
%TO.P,SW23,2,2*%
%TO.N,Net-(D23-A)*%
X64293750Y-94056250D03*
%TD*%
%TO.P,SW24,1,1*%
%TO.N,/right/col1*%
X190737500Y-89475000D03*
%TO.P,SW24,2,2*%
%TO.N,Net-(D24-A)*%
X185737500Y-91675000D03*
%TD*%
%TO.P,SW25,1,1*%
%TO.N,/left/col1*%
X69293750Y-110906250D03*
%TO.P,SW25,2,2*%
%TO.N,Net-(D25-A)*%
X64293750Y-113106250D03*
%TD*%
%TO.P,SW26,1,1*%
%TO.N,/right/col1*%
X190737500Y-108525000D03*
%TO.P,SW26,2,2*%
%TO.N,Net-(D26-A)*%
X185737500Y-110725000D03*
%TD*%
%TO.P,SW27,1,1*%
%TO.N,/left/col1*%
X69293750Y-129956250D03*
%TO.P,SW27,2,2*%
%TO.N,Net-(D27-A)*%
X64293750Y-132156250D03*
%TD*%
%TO.P,SW28,1,1*%
%TO.N,/right/col1*%
X190737500Y-127575000D03*
%TO.P,SW28,2,2*%
%TO.N,Net-(D28-A)*%
X185737500Y-129775000D03*
%TD*%
%TO.P,SW29,1,1*%
%TO.N,/left/col2*%
X88343750Y-68043750D03*
%TO.P,SW29,2,2*%
%TO.N,Net-(D29-A)*%
X83343750Y-70243750D03*
%TD*%
%TO.P,SW30,1,1*%
%TO.N,/right/col2*%
X209787500Y-63281250D03*
%TO.P,SW30,2,2*%
%TO.N,Net-(D30-A)*%
X204787500Y-65481250D03*
%TD*%
%TO.P,SW31,1,1*%
%TO.N,/left/col2*%
X88343750Y-87093750D03*
%TO.P,SW31,2,2*%
%TO.N,Net-(D31-A)*%
X83343750Y-89293750D03*
%TD*%
%TO.P,SW32,1,1*%
%TO.N,/right/col2*%
X209787500Y-82331250D03*
%TO.P,SW32,2,2*%
%TO.N,Net-(D32-A)*%
X204787500Y-84531250D03*
%TD*%
%TO.P,SW33,1,1*%
%TO.N,/left/col2*%
X88343750Y-106143750D03*
%TO.P,SW33,2,2*%
%TO.N,Net-(D33-A)*%
X83343750Y-108343750D03*
%TD*%
%TO.P,SW34,1,1*%
%TO.N,/right/col2*%
X209787500Y-102018750D03*
%TO.P,SW34,2,2*%
%TO.N,Net-(D34-A)*%
X204787500Y-104218750D03*
%TD*%
%TO.P,SW35,1,1*%
%TO.N,/left/col2*%
X88343750Y-125193750D03*
%TO.P,SW35,2,2*%
%TO.N,Net-(D35-A)*%
X83343750Y-127393750D03*
%TD*%
%TO.P,SW36,1,1*%
%TO.N,/right/col2*%
X209787500Y-120431250D03*
%TO.P,SW36,2,2*%
%TO.N,Net-(D36-A)*%
X204787500Y-122631250D03*
%TD*%
%TO.P,SW37,1,1*%
%TO.N,/left/col3*%
X107393750Y-63281250D03*
%TO.P,SW37,2,2*%
%TO.N,Net-(D37-A)*%
X102393750Y-65481250D03*
%TD*%
%TO.P,SW38,1,1*%
%TO.N,/right/col3*%
X228837500Y-68043750D03*
%TO.P,SW38,2,2*%
%TO.N,Net-(D38-A)*%
X223837500Y-70243750D03*
%TD*%
%TO.P,SW39,1,1*%
%TO.N,/left/col3*%
X107393750Y-82331250D03*
%TO.P,SW39,2,2*%
%TO.N,Net-(D39-A)*%
X102393750Y-84531250D03*
%TD*%
%TO.P,SW40,1,1*%
%TO.N,/right/col3*%
X228837500Y-87093750D03*
%TO.P,SW40,2,2*%
%TO.N,Net-(D40-A)*%
X223837500Y-89293750D03*
%TD*%
%TO.P,SW41,1,1*%
%TO.N,/left/col3*%
X107393750Y-101381250D03*
%TO.P,SW41,2,2*%
%TO.N,Net-(D41-A)*%
X102393750Y-103581250D03*
%TD*%
%TO.P,SW42,1,1*%
%TO.N,/right/col3*%
X228837500Y-106143750D03*
%TO.P,SW42,2,2*%
%TO.N,Net-(D42-A)*%
X223837500Y-108343750D03*
%TD*%
%TO.P,SW43,1,1*%
%TO.N,/left/col3*%
X107393750Y-120431250D03*
%TO.P,SW43,2,2*%
%TO.N,Net-(D43-A)*%
X102393750Y-122631250D03*
%TD*%
%TO.P,SW44,1,1*%
%TO.N,/right/col3*%
X228837500Y-125193750D03*
%TO.P,SW44,2,2*%
%TO.N,Net-(D44-A)*%
X223837500Y-127393750D03*
%TD*%
%TO.P,SW45,1,1*%
%TO.N,/left/col4*%
X126443750Y-70425000D03*
%TO.P,SW45,2,2*%
%TO.N,Net-(D45-A)*%
X121443750Y-72625000D03*
%TD*%
%TO.P,SW46,1,1*%
%TO.N,/right/col4*%
X247887500Y-72806250D03*
%TO.P,SW46,2,2*%
%TO.N,Net-(D46-A)*%
X242887500Y-75006250D03*
%TD*%
%TO.P,SW47,1,1*%
%TO.N,/left/col4*%
X126443750Y-89475000D03*
%TO.P,SW47,2,2*%
%TO.N,Net-(D47-A)*%
X121443750Y-91675000D03*
%TD*%
%TO.P,SW48,1,1*%
%TO.N,/right/col4*%
X247887500Y-91856250D03*
%TO.P,SW48,2,2*%
%TO.N,Net-(D48-A)*%
X242887500Y-94056250D03*
%TD*%
%TO.P,SW49,1,1*%
%TO.N,/left/col4*%
X126443750Y-108525000D03*
%TO.P,SW49,2,2*%
%TO.N,Net-(D49-A)*%
X121443750Y-110725000D03*
%TD*%
%TO.P,SW50,1,1*%
%TO.N,/right/col4*%
X247887500Y-110906250D03*
%TO.P,SW50,2,2*%
%TO.N,Net-(D50-A)*%
X242887500Y-113106250D03*
%TD*%
%TO.P,SW51,1,1*%
%TO.N,/left/col4*%
X126443750Y-127575000D03*
%TO.P,SW51,2,2*%
%TO.N,Net-(D51-A)*%
X121443750Y-129775000D03*
%TD*%
%TO.P,SW52,1,1*%
%TO.N,/right/col4*%
X247887500Y-129956250D03*
%TO.P,SW52,2,2*%
%TO.N,Net-(D52-A)*%
X242887500Y-132156250D03*
%TD*%
%TO.P,SW53,1,1*%
%TO.N,/left/col5*%
X145493750Y-75187500D03*
%TO.P,SW53,2,2*%
%TO.N,Net-(D53-A)*%
X140493750Y-77387500D03*
%TD*%
%TO.P,SW54,1,1*%
%TO.N,/right/col5*%
X266937500Y-72806250D03*
%TO.P,SW54,2,2*%
%TO.N,Net-(D54-A)*%
X261937500Y-75006250D03*
%TD*%
%TO.P,SW55,1,1*%
%TO.N,/left/col5*%
X145493750Y-94237500D03*
%TO.P,SW55,2,2*%
%TO.N,Net-(D55-A)*%
X140493750Y-96437500D03*
%TD*%
%TO.P,SW56,1,1*%
%TO.N,/right/col5*%
X266937500Y-91856250D03*
%TO.P,SW56,2,2*%
%TO.N,Net-(D56-A)*%
X261937500Y-94056250D03*
%TD*%
%TO.P,SW57,1,1*%
%TO.N,/left/col5*%
X145493750Y-113287500D03*
%TO.P,SW57,2,2*%
%TO.N,Net-(D57-A)*%
X140493750Y-115487500D03*
%TD*%
%TO.P,SW58,1,1*%
%TO.N,/right/col5*%
X266937500Y-110906250D03*
%TO.P,SW58,2,2*%
%TO.N,Net-(D58-A)*%
X261937500Y-113106250D03*
%TD*%
%TO.P,SW59,1,1*%
%TO.N,/left/col5*%
X145493750Y-132337500D03*
%TO.P,SW59,2,2*%
%TO.N,Net-(D59-A)*%
X140493750Y-134537500D03*
%TD*%
%TO.P,SW60,1,1*%
%TO.N,/right/col5*%
X266937500Y-129956250D03*
%TO.P,SW60,2,2*%
%TO.N,Net-(D60-A)*%
X261937500Y-132156250D03*
%TD*%
D10*
%TO.P,U1,15,BAT*%
%TO.N,/left/vbat*%
X40000000Y-28900000D03*
%TO.P,U1,16,GND*%
%TO.N,GND*%
X40000000Y-25500000D03*
%TD*%
D15*
%TO.N,/left/vbat*%
X92000000Y-33500000D03*
X91500000Y-37701000D03*
X74000000Y-38000000D03*
X89000000Y-37701000D03*
X57400000Y-37615628D03*
X43500000Y-27500000D03*
%TO.N,GND*%
X88825735Y-36174265D03*
X55500000Y-23500000D03*
X275500000Y-23500000D03*
%TO.N,/right/vbat*%
X233600000Y-25114579D03*
%TO.N,GND*%
X233000000Y-24500000D03*
%TO.N,Net-(U2-NFC1)*%
X269500000Y-35500000D03*
%TO.N,Net-(SW62-PadC)*%
X261000000Y-21000000D03*
%TO.N,Net-(U2-NFC2)*%
X266000000Y-36000000D03*
%TO.N,Net-(SW61-PadC)*%
X56500000Y-20500000D03*
X47500000Y-21500000D03*
%TO.N,Net-(U1-NFC1)*%
X46000000Y-38000000D03*
X56000000Y-37500000D03*
%TO.N,Net-(U1-NFC2)*%
X53000000Y-38000000D03*
X56000000Y-35500000D03*
%TO.N,Net-(D12-A)*%
X262500000Y-42000000D03*
%TO.N,Net-(D24-A)*%
X182000000Y-80000000D03*
%TO.N,Net-(D26-A)*%
X182000000Y-99000000D03*
%TO.N,Net-(D34-A)*%
X201000000Y-93500000D03*
%TO.N,Net-(D42-A)*%
X220500000Y-98500000D03*
%TO.N,Net-(D40-A)*%
X220500000Y-78500000D03*
%TO.N,Net-(D32-A)*%
X201500000Y-73500000D03*
%TO.N,/right/row3*%
X254500000Y-106000000D03*
X272500000Y-39500000D03*
%TO.N,/right/row2*%
X254500000Y-83500000D03*
X275000000Y-36500000D03*
%TO.N,/right/col5*%
X265000000Y-39500000D03*
%TO.N,/right/row4*%
X253500000Y-121500000D03*
X254000000Y-42000000D03*
%TO.N,/right/col4*%
X251500000Y-46500000D03*
%TO.N,/right/col3*%
X235000000Y-43000000D03*
%TO.N,/right/col2*%
X219500000Y-41500000D03*
%TO.N,/right/col1*%
X210000000Y-36500000D03*
%TO.N,Net-(D20-A)*%
X162500000Y-123000000D03*
%TO.N,Net-(D28-A)*%
X182000000Y-118500000D03*
%TO.N,Net-(D36-A)*%
X201000000Y-112000000D03*
%TO.N,Net-(D44-A)*%
X220500000Y-116500000D03*
%TO.N,Net-(D46-A)*%
X239500000Y-64500000D03*
%TO.N,Net-(D38-A)*%
X220500000Y-60000000D03*
%TO.N,Net-(D30-A)*%
X201500000Y-54500000D03*
%TO.N,Net-(D22-A)*%
X182500000Y-61500000D03*
%TO.N,Net-(D4-A)*%
X182000000Y-41500000D03*
%TO.N,Net-(D6-A)*%
X200500000Y-34000000D03*
%TO.N,Net-(D8-A)*%
X219500000Y-40000000D03*
%TO.N,Net-(D10-A)*%
X239500000Y-44500000D03*
%TO.N,Net-(D54-A)*%
X259000000Y-64000000D03*
%TO.N,GND*%
X50000000Y-23500000D03*
X46000000Y-24500000D03*
%TO.N,/left/row3*%
X41500000Y-103000000D03*
X39400000Y-32500000D03*
%TO.N,/left/row2*%
X41000000Y-84000000D03*
X41498997Y-33000000D03*
%TO.N,/left/row1*%
X41500000Y-71000000D03*
X42299000Y-33000000D03*
%TO.N,/left/row0*%
X60500000Y-44500000D03*
X54500000Y-38500000D03*
%TO.N,/left/vbat*%
X33500000Y-41000000D03*
%TO.N,GND*%
X30750000Y-53250000D03*
%TO.N,/left/col0*%
X44000000Y-25000000D03*
%TO.N,/left/col1*%
X43500000Y-26000000D03*
%TO.N,/left/col2*%
X88000000Y-34500000D03*
%TO.N,Net-(D33-A)*%
X79500000Y-97500000D03*
%TO.N,Net-(D31-A)*%
X80500000Y-78500000D03*
%TO.N,Net-(D29-A)*%
X79000000Y-58000000D03*
%TO.N,Net-(D43-A)*%
X98500000Y-112000000D03*
%TO.N,Net-(D41-A)*%
X98500000Y-94000000D03*
%TO.N,Net-(D39-A)*%
X98500000Y-75500000D03*
%TO.N,Net-(D37-A)*%
X98500000Y-56000000D03*
%TO.N,Net-(D7-A)*%
X99000000Y-36500000D03*
%TO.N,Net-(D5-A)*%
X79500000Y-41500000D03*
%TO.N,/left/col5*%
X55000000Y-18800000D03*
%TD*%
D16*
%TO.N,/left/vbat*%
X91500000Y-34000000D02*
X92000000Y-33500000D01*
X91500000Y-37701000D02*
X91500000Y-34000000D01*
X88701000Y-38000000D02*
X89000000Y-37701000D01*
X74000000Y-38000000D02*
X88701000Y-38000000D01*
X56601000Y-35748943D02*
X56601000Y-35251057D01*
X48849943Y-27500000D02*
X43500000Y-27500000D01*
X57400000Y-36547943D02*
X56601000Y-35748943D01*
X56601000Y-35251057D02*
X48849943Y-27500000D01*
X57400000Y-37615628D02*
X57400000Y-36547943D01*
%TO.N,GND*%
X60137227Y-36174265D02*
X88825735Y-36174265D01*
X55500000Y-31537038D02*
X60137227Y-36174265D01*
X55500000Y-23500000D02*
X55500000Y-31537038D01*
X273500000Y-25500000D02*
X275500000Y-23500000D01*
X260000000Y-25500000D02*
X273500000Y-25500000D01*
%TO.N,/right/vbat*%
X233714579Y-25000000D02*
X233600000Y-25114579D01*
X256500000Y-25000000D02*
X233714579Y-25000000D01*
X260000000Y-28500000D02*
X256500000Y-25000000D01*
X260000000Y-28900000D02*
X260000000Y-28500000D01*
%TO.N,GND*%
X259000000Y-24500000D02*
X233000000Y-24500000D01*
X260000000Y-25500000D02*
X259000000Y-24500000D01*
%TO.N,Net-(U2-NFC1)*%
X267582957Y-35500000D02*
X269500000Y-35500000D01*
X266481957Y-36601000D02*
X267582957Y-35500000D01*
X239323608Y-36601000D02*
X266481957Y-36601000D01*
X229574000Y-26851392D02*
X239323608Y-36601000D01*
X229574000Y-22613500D02*
X229574000Y-26851392D01*
X230875000Y-21312500D02*
X229574000Y-22613500D01*
%TO.N,Net-(SW62-PadC)*%
X258187500Y-23812500D02*
X261000000Y-21000000D01*
X230875000Y-23812500D02*
X258187500Y-23812500D01*
%TO.N,Net-(U2-NFC2)*%
X230875000Y-26312500D02*
X240562500Y-36000000D01*
X240562500Y-36000000D02*
X266000000Y-36000000D01*
%TO.N,Net-(SW61-PadC)*%
X56500000Y-20500000D02*
X55500000Y-21500000D01*
X55500000Y-21500000D02*
X47500000Y-21500000D01*
%TO.N,Net-(U1-NFC1)*%
X52000000Y-40000000D02*
X46000000Y-40000000D01*
X46000000Y-40000000D02*
X46000000Y-38000000D01*
X56000000Y-37500000D02*
X54500000Y-37500000D01*
X54500000Y-37500000D02*
X52000000Y-40000000D01*
%TO.N,Net-(U1-NFC2)*%
X55500000Y-35500000D02*
X53000000Y-38000000D01*
X56000000Y-35500000D02*
X55500000Y-35500000D01*
%TO.N,/left/col1*%
X48000000Y-26000000D02*
X43500000Y-26000000D01*
X58000000Y-40129048D02*
X58000000Y-36000000D01*
X69293750Y-51422798D02*
X58000000Y-40129048D01*
X69293750Y-53756250D02*
X69293750Y-51422798D01*
X58000000Y-36000000D02*
X48000000Y-26000000D01*
%TO.N,Net-(D12-A)*%
X259500000Y-45000000D02*
X262500000Y-42000000D01*
X259500000Y-53518750D02*
X259500000Y-45000000D01*
X261937500Y-55956250D02*
X259500000Y-53518750D01*
%TO.N,/left/col4*%
X128144750Y-53076000D02*
X126443750Y-51375000D01*
X128144750Y-68724000D02*
X128144750Y-53076000D01*
X126443750Y-70425000D02*
X128144750Y-68724000D01*
%TO.N,Net-(D24-A)*%
X182000000Y-87937500D02*
X182000000Y-80000000D01*
X185737500Y-91675000D02*
X182000000Y-87937500D01*
%TO.N,Net-(D26-A)*%
X182000000Y-106987500D02*
X182000000Y-99000000D01*
X185737500Y-110725000D02*
X182000000Y-106987500D01*
%TO.N,Net-(D34-A)*%
X201000000Y-100431250D02*
X201000000Y-93500000D01*
X204787500Y-104218750D02*
X201000000Y-100431250D01*
%TO.N,Net-(D42-A)*%
X220500000Y-105006250D02*
X220500000Y-98500000D01*
X223837500Y-108343750D02*
X220500000Y-105006250D01*
%TO.N,Net-(D40-A)*%
X220500000Y-85956250D02*
X220500000Y-78500000D01*
X223837500Y-89293750D02*
X220500000Y-85956250D01*
%TO.N,Net-(D32-A)*%
X201500000Y-81243750D02*
X201500000Y-73500000D01*
X204787500Y-84531250D02*
X201500000Y-81243750D01*
%TO.N,/right/row3*%
X254500000Y-108427881D02*
X254500000Y-106000000D01*
X264500000Y-118427881D02*
X254500000Y-108427881D01*
X264500000Y-130277881D02*
X264500000Y-118427881D01*
X266129369Y-131907250D02*
X264500000Y-130277881D01*
X272500000Y-127152881D02*
X267745631Y-131907250D01*
X267745631Y-131907250D02*
X266129369Y-131907250D01*
X272500000Y-39500000D02*
X272500000Y-127152881D01*
%TO.N,/right/row2*%
X255000000Y-83000000D02*
X254500000Y-83500000D01*
X258500000Y-83000000D02*
X255000000Y-83000000D01*
X267150057Y-36500000D02*
X258399000Y-45251057D01*
X258399000Y-45251057D02*
X258399000Y-82899000D01*
X275000000Y-36500000D02*
X267150057Y-36500000D01*
X258399000Y-82899000D02*
X258500000Y-83000000D01*
%TO.N,/right/col5*%
X265000000Y-39500000D02*
X265000000Y-51818750D01*
X265000000Y-51818750D02*
X266937500Y-53756250D01*
%TO.N,/right/row4*%
X254000000Y-42000000D02*
X253500000Y-42500000D01*
X253500000Y-42500000D02*
X253500000Y-121500000D01*
%TO.N,/right/col4*%
X251500000Y-46500000D02*
X251500000Y-50143750D01*
X251500000Y-50143750D02*
X247887500Y-53756250D01*
%TO.N,/right/col3*%
X235000000Y-43000000D02*
X234500000Y-43500000D01*
X234331250Y-43500000D02*
X228837500Y-48993750D01*
X234500000Y-43500000D02*
X234331250Y-43500000D01*
%TO.N,/right/col2*%
X216768750Y-44231250D02*
X209787500Y-44231250D01*
X219500000Y-41500000D02*
X216768750Y-44231250D01*
%TO.N,/right/col1*%
X202602881Y-51375000D02*
X190737500Y-51375000D01*
X206738500Y-47239381D02*
X202602881Y-51375000D01*
X206738500Y-41430802D02*
X206738500Y-47239381D01*
X210000000Y-38169302D02*
X206738500Y-41430802D01*
X210000000Y-36500000D02*
X210000000Y-38169302D01*
%TO.N,/right/col5*%
X265287500Y-128306250D02*
X266937500Y-129956250D01*
X265287500Y-112556250D02*
X265287500Y-128306250D01*
X266937500Y-110906250D02*
X265287500Y-112556250D01*
X265287500Y-93506250D02*
X265287500Y-109256250D01*
X265287500Y-109256250D02*
X266937500Y-110906250D01*
X266937500Y-91856250D02*
X265287500Y-93506250D01*
X265287500Y-90206250D02*
X266937500Y-91856250D01*
X265287500Y-74456250D02*
X265287500Y-90206250D01*
X266937500Y-72806250D02*
X265287500Y-74456250D01*
X265287500Y-55406250D02*
X265287500Y-71156250D01*
X265287500Y-71156250D02*
X266937500Y-72806250D01*
X266937500Y-53756250D02*
X265287500Y-55406250D01*
%TO.N,/right/col4*%
X246237500Y-55406250D02*
X247887500Y-53756250D01*
X246237500Y-71156250D02*
X246237500Y-55406250D01*
X247887500Y-72806250D02*
X246237500Y-71156250D01*
X246237500Y-74456250D02*
X247887500Y-72806250D01*
X246237500Y-90206250D02*
X246237500Y-74456250D01*
X247887500Y-91856250D02*
X246237500Y-90206250D01*
X246237500Y-109256250D02*
X246237500Y-93506250D01*
X246237500Y-93506250D02*
X247887500Y-91856250D01*
X247887500Y-110906250D02*
X246237500Y-109256250D01*
X246237500Y-128306250D02*
X247887500Y-129956250D01*
X247887500Y-110906250D02*
X246237500Y-112556250D01*
X246237500Y-112556250D02*
X246237500Y-128306250D01*
%TO.N,/right/col3*%
X227187500Y-107793750D02*
X228837500Y-106143750D01*
X227187500Y-123543750D02*
X227187500Y-107793750D01*
X228837500Y-125193750D02*
X227187500Y-123543750D01*
X227187500Y-88743750D02*
X228837500Y-87093750D01*
X227187500Y-104493750D02*
X227187500Y-88743750D01*
X228837500Y-106143750D02*
X227187500Y-104493750D01*
X228136500Y-86392750D02*
X228837500Y-87093750D01*
X228837500Y-68043750D02*
X228136500Y-68744750D01*
X228136500Y-68744750D02*
X228136500Y-86392750D01*
X227187500Y-66393750D02*
X228837500Y-68043750D01*
X227187500Y-50643750D02*
X227187500Y-66393750D01*
X228837500Y-48993750D02*
X227187500Y-50643750D01*
%TO.N,/right/col2*%
X208137500Y-45881250D02*
X209787500Y-44231250D01*
X208137500Y-61631250D02*
X208137500Y-45881250D01*
X209787500Y-63281250D02*
X208137500Y-61631250D01*
X208137500Y-80681250D02*
X208137500Y-64931250D01*
X209787500Y-82331250D02*
X208137500Y-80681250D01*
X208137500Y-64931250D02*
X209787500Y-63281250D01*
X208137500Y-100368750D02*
X208137500Y-83981250D01*
X209787500Y-102018750D02*
X208137500Y-100368750D01*
X208137500Y-83981250D02*
X209787500Y-82331250D01*
X208137500Y-118781250D02*
X208137500Y-103668750D01*
X209787500Y-120431250D02*
X208137500Y-118781250D01*
X208137500Y-103668750D02*
X209787500Y-102018750D01*
%TO.N,/right/col1*%
X189087500Y-125925000D02*
X190737500Y-127575000D01*
X189087500Y-110175000D02*
X189087500Y-125925000D01*
X190737500Y-108525000D02*
X189087500Y-110175000D01*
X189087500Y-91125000D02*
X189087500Y-106875000D01*
X189087500Y-106875000D02*
X190737500Y-108525000D01*
X190737500Y-89475000D02*
X189087500Y-91125000D01*
X189087500Y-87825000D02*
X190737500Y-89475000D01*
X189087500Y-72075000D02*
X189087500Y-87825000D01*
X190737500Y-70425000D02*
X189087500Y-72075000D01*
X192438500Y-53076000D02*
X192438500Y-68724000D01*
X190737500Y-51375000D02*
X192438500Y-53076000D01*
X192438500Y-68724000D02*
X190737500Y-70425000D01*
%TO.N,/right/col0*%
X170037500Y-57787500D02*
X171687500Y-56137500D01*
X170037500Y-73537500D02*
X170037500Y-57787500D01*
X171687500Y-75187500D02*
X170037500Y-73537500D01*
X170986500Y-93536500D02*
X170986500Y-75888500D01*
X170986500Y-75888500D02*
X171687500Y-75187500D01*
X171687500Y-94237500D02*
X170986500Y-93536500D01*
X173388500Y-111586500D02*
X173388500Y-95938500D01*
X173388500Y-95938500D02*
X171687500Y-94237500D01*
X171687500Y-113287500D02*
X173388500Y-111586500D01*
X173388500Y-114988500D02*
X171687500Y-113287500D01*
X173388500Y-130636500D02*
X173388500Y-114988500D01*
X171687500Y-132337500D02*
X173388500Y-130636500D01*
%TO.N,Net-(D20-A)*%
X163000000Y-123500000D02*
X162500000Y-123000000D01*
X166687500Y-134537500D02*
X163000000Y-130850000D01*
X163000000Y-130850000D02*
X163000000Y-123500000D01*
%TO.N,Net-(D28-A)*%
X182000000Y-126037500D02*
X182000000Y-118500000D01*
X185737500Y-129775000D02*
X182000000Y-126037500D01*
%TO.N,Net-(D36-A)*%
X201000000Y-118843750D02*
X201000000Y-112000000D01*
X204787500Y-122631250D02*
X201000000Y-118843750D01*
%TO.N,Net-(D44-A)*%
X220500000Y-124056250D02*
X220500000Y-116500000D01*
X223837500Y-127393750D02*
X220500000Y-124056250D01*
%TO.N,Net-(D46-A)*%
X239500000Y-71618750D02*
X239500000Y-64500000D01*
X242887500Y-75006250D02*
X239500000Y-71618750D01*
%TO.N,Net-(D38-A)*%
X220500000Y-66906250D02*
X220500000Y-60000000D01*
X223837500Y-70243750D02*
X220500000Y-66906250D01*
%TO.N,Net-(D30-A)*%
X201500000Y-62193750D02*
X201500000Y-54500000D01*
X204787500Y-65481250D02*
X201500000Y-62193750D01*
%TO.N,Net-(D22-A)*%
X182500000Y-69387500D02*
X182500000Y-61500000D01*
X185737500Y-72625000D02*
X182500000Y-69387500D01*
%TO.N,Net-(D4-A)*%
X182500000Y-42000000D02*
X182000000Y-41500000D01*
X182500000Y-50337500D02*
X182500000Y-42000000D01*
X185737500Y-53575000D02*
X182500000Y-50337500D01*
%TO.N,Net-(D6-A)*%
X200500000Y-34500000D02*
X200500000Y-34000000D01*
X201000000Y-42643750D02*
X201000000Y-35000000D01*
X201000000Y-35000000D02*
X200500000Y-34500000D01*
X204787500Y-46431250D02*
X201000000Y-42643750D01*
%TO.N,Net-(D8-A)*%
X221786500Y-42286500D02*
X219500000Y-40000000D01*
X221786500Y-49142750D02*
X221786500Y-42286500D01*
X223837500Y-51193750D02*
X221786500Y-49142750D01*
%TO.N,Net-(D10-A)*%
X239500000Y-52568750D02*
X239500000Y-44500000D01*
X242887500Y-55956250D02*
X239500000Y-52568750D01*
%TO.N,Net-(D54-A)*%
X259000000Y-72068750D02*
X259000000Y-64000000D01*
X261937500Y-75006250D02*
X259000000Y-72068750D01*
%TO.N,GND*%
X49000000Y-24500000D02*
X50000000Y-23500000D01*
X46000000Y-24500000D02*
X49000000Y-24500000D01*
%TO.N,/left/row3*%
X31099000Y-92599000D02*
X41500000Y-103000000D01*
X31099000Y-53901000D02*
X31099000Y-92599000D01*
X32000000Y-53000000D02*
X31099000Y-53901000D01*
%TO.N,GND*%
X40000000Y-18601000D02*
X40000000Y-25500000D01*
X29500000Y-31500000D02*
X30000000Y-31000000D01*
X30000000Y-31000000D02*
X30000000Y-18601000D01*
X29000000Y-31500000D02*
X29500000Y-31500000D01*
X30750000Y-53250000D02*
X29000000Y-51500000D01*
X29000000Y-51500000D02*
X29000000Y-31500000D01*
X30000000Y-18601000D02*
X40000000Y-18601000D01*
%TO.N,/left/row3*%
X32000000Y-40500000D02*
X32000000Y-53000000D01*
X31000000Y-39500000D02*
X32000000Y-40500000D01*
X38000000Y-32500000D02*
X31000000Y-39500000D01*
X39400000Y-32500000D02*
X38000000Y-32500000D01*
%TO.N,/left/row2*%
X40000000Y-79500000D02*
X40000000Y-83000000D01*
X32500000Y-64500000D02*
X31500000Y-65500000D01*
X40000000Y-83000000D02*
X41000000Y-84000000D01*
X32500000Y-43000000D02*
X32500000Y-64500000D01*
X31500000Y-65500000D02*
X31500000Y-71000000D01*
X41498997Y-33000000D02*
X41498997Y-34001003D01*
X31500000Y-71000000D02*
X40000000Y-79500000D01*
X41498997Y-34001003D02*
X32500000Y-43000000D01*
%TO.N,/left/row1*%
X38000000Y-71000000D02*
X41500000Y-71000000D01*
X32500000Y-65500000D02*
X38000000Y-71000000D01*
X36500000Y-61500000D02*
X32500000Y-65500000D01*
X36500000Y-40000000D02*
X36500000Y-61500000D01*
X42299000Y-34201000D02*
X36500000Y-40000000D01*
X42299000Y-33000000D02*
X42299000Y-34201000D01*
%TO.N,/left/row0*%
X54500000Y-38500000D02*
X60500000Y-44500000D01*
%TO.N,/left/vbat*%
X40000000Y-34500000D02*
X33500000Y-41000000D01*
X40000000Y-28900000D02*
X40000000Y-34500000D01*
%TO.N,/left/col5*%
X144792750Y-55436500D02*
X145493750Y-56137500D01*
X144792750Y-52635042D02*
X144792750Y-55436500D01*
X133406650Y-41248942D02*
X144792750Y-52635042D01*
X133406650Y-37000000D02*
X133406650Y-41248942D01*
X115530062Y-37000000D02*
X133406650Y-37000000D01*
X113500000Y-34969938D02*
X115530062Y-37000000D01*
X113500000Y-29500000D02*
X113500000Y-34969938D01*
X94485238Y-29500000D02*
X113500000Y-29500000D01*
X90256592Y-33728646D02*
X94485238Y-29500000D01*
X57500000Y-32969938D02*
X58258708Y-33728646D01*
X57500000Y-19500000D02*
X57500000Y-32969938D01*
X58258708Y-33728646D02*
X90256592Y-33728646D01*
X55200000Y-19000000D02*
X57000000Y-19000000D01*
X55000000Y-18800000D02*
X55200000Y-19000000D01*
X57000000Y-19000000D02*
X57500000Y-19500000D01*
%TO.N,/left/col0*%
X50243750Y-52105698D02*
X50243750Y-53756250D01*
X42899000Y-44760948D02*
X50243750Y-52105698D01*
X42899000Y-25751057D02*
X42899000Y-44760948D01*
X44000000Y-25000000D02*
X43650057Y-25000000D01*
X43650057Y-25000000D02*
X42899000Y-25751057D01*
%TO.N,/left/col2*%
X90044750Y-47292750D02*
X88343750Y-48993750D01*
X88000000Y-34500000D02*
X90044750Y-36544750D01*
X90044750Y-36544750D02*
X90044750Y-47292750D01*
%TO.N,Net-(D33-A)*%
X79500000Y-104500000D02*
X79500000Y-97500000D01*
X83343750Y-108343750D02*
X79500000Y-104500000D01*
%TO.N,/left/col3*%
X105743750Y-118781250D02*
X107393750Y-120431250D01*
X105743750Y-103031250D02*
X105743750Y-118781250D01*
X107393750Y-101381250D02*
X105743750Y-103031250D01*
X105743750Y-99731250D02*
X107393750Y-101381250D01*
X105743750Y-83981250D02*
X105743750Y-99731250D01*
X107393750Y-82331250D02*
X105743750Y-83981250D01*
X105743750Y-80681250D02*
X107393750Y-82331250D01*
X107393750Y-63281250D02*
X105743750Y-64931250D01*
X105743750Y-64931250D02*
X105743750Y-80681250D01*
X105743750Y-61631250D02*
X107393750Y-63281250D01*
X105743750Y-45881250D02*
X105743750Y-61631250D01*
X107393750Y-44231250D02*
X105743750Y-45881250D01*
%TO.N,/left/col2*%
X86693750Y-50643750D02*
X88343750Y-48993750D01*
X88343750Y-68043750D02*
X86693750Y-66393750D01*
X86693750Y-66393750D02*
X86693750Y-50643750D01*
X86693750Y-69693750D02*
X88343750Y-68043750D01*
X86693750Y-85443750D02*
X86693750Y-69693750D01*
X88343750Y-87093750D02*
X86693750Y-85443750D01*
X86500000Y-88937500D02*
X88343750Y-87093750D01*
X86500000Y-104300000D02*
X86500000Y-88937500D01*
X88343750Y-106143750D02*
X86500000Y-104300000D01*
X87000000Y-107487500D02*
X88343750Y-106143750D01*
X88343750Y-125193750D02*
X87000000Y-123850000D01*
X87000000Y-123850000D02*
X87000000Y-107487500D01*
%TO.N,/left/col0*%
X48593750Y-55406250D02*
X50243750Y-53756250D01*
X48593750Y-71156250D02*
X48593750Y-55406250D01*
X50243750Y-72806250D02*
X48593750Y-71156250D01*
X48593750Y-74456250D02*
X50243750Y-72806250D01*
X48593750Y-90206250D02*
X48593750Y-74456250D01*
X50243750Y-91856250D02*
X48593750Y-90206250D01*
X48593750Y-93506250D02*
X50243750Y-91856250D01*
X48593750Y-109256250D02*
X48593750Y-93506250D01*
X50243750Y-110906250D02*
X48593750Y-109256250D01*
X48593750Y-128306250D02*
X48593750Y-112556250D01*
X50243750Y-129956250D02*
X48593750Y-128306250D01*
X48593750Y-112556250D02*
X50243750Y-110906250D01*
%TO.N,Net-(D31-A)*%
X80500000Y-86450000D02*
X80500000Y-78500000D01*
X83343750Y-89293750D02*
X80500000Y-86450000D01*
%TO.N,Net-(D29-A)*%
X83343750Y-67910298D02*
X79000000Y-63566548D01*
X79000000Y-63566548D02*
X79000000Y-58000000D01*
X83343750Y-70243750D02*
X83343750Y-67910298D01*
%TO.N,Net-(D43-A)*%
X98500000Y-118737500D02*
X98500000Y-112000000D01*
X102393750Y-122631250D02*
X98500000Y-118737500D01*
%TO.N,Net-(D41-A)*%
X98500000Y-99687500D02*
X98500000Y-94000000D01*
X102393750Y-103581250D02*
X98500000Y-99687500D01*
%TO.N,Net-(D39-A)*%
X98500000Y-80637500D02*
X98500000Y-75500000D01*
X102393750Y-84531250D02*
X98500000Y-80637500D01*
%TO.N,Net-(D37-A)*%
X98500000Y-61587500D02*
X98500000Y-56000000D01*
X102393750Y-65481250D02*
X98500000Y-61587500D01*
%TO.N,Net-(D7-A)*%
X99000000Y-43037500D02*
X99000000Y-36500000D01*
X102393750Y-46431250D02*
X99000000Y-43037500D01*
%TO.N,Net-(D5-A)*%
X79500000Y-47350000D02*
X79500000Y-41500000D01*
X83343750Y-51193750D02*
X79500000Y-47350000D01*
%TO.N,/left/col1*%
X67643750Y-55406250D02*
X69293750Y-53756250D01*
X67643750Y-71156250D02*
X67643750Y-55406250D01*
X69293750Y-72806250D02*
X67643750Y-71156250D01*
X67643750Y-90206250D02*
X67643750Y-74456250D01*
X67643750Y-74456250D02*
X69293750Y-72806250D01*
X69293750Y-91856250D02*
X67643750Y-90206250D01*
X67643750Y-93506250D02*
X69293750Y-91856250D01*
X67643750Y-109256250D02*
X67643750Y-93506250D01*
X69293750Y-110906250D02*
X67643750Y-109256250D01*
X68592750Y-111607250D02*
X69293750Y-110906250D01*
X69293750Y-129956250D02*
X68592750Y-129255250D01*
X68592750Y-129255250D02*
X68592750Y-111607250D01*
%TD*%
M02*
