M48
; DRILL file {KiCad 9.0.5} date 2025-12-19T18:50:26-0800
; FORMAT={-:-/ absolute / metric / decimal}
; #@! TF.CreationDate,2025-12-19T18:50:26-08:00
; #@! TF.GenerationSoftware,Kicad,Pcbnew,9.0.5
; #@! TF.FileFunction,NonPlated,1,2,NPTH
FMAT,2
METRIC
; #@! TA.AperFunction,NonPlated,NPTH,ComponentDrill
T1C0.500
; #@! TA.AperFunction,NonPlated,NPTH,ComponentDrill
T2C1.700
; #@! TA.AperFunction,NonPlated,NPTH,ComponentDrill
T3C2.200
; #@! TA.AperFunction,NonPlated,NPTH,ComponentDrill
T4C3.400
%
G90
G05
T1
X151.0Y-51.0
X151.0Y-51.75
X151.0Y-52.5
X151.0Y-53.25
X151.0Y-54.0
X151.0Y-54.75
X151.0Y-55.5
X151.0Y-56.25
X151.0Y-57.0
X151.0Y-57.75
X151.0Y-57.75
X151.0Y-58.5
X151.0Y-83.75
X151.0Y-84.5
X151.0Y-85.25
X151.0Y-86.0
X151.0Y-86.75
X151.0Y-87.5
X151.0Y-88.25
X151.0Y-89.0
X151.0Y-89.75
X151.0Y-90.5
X151.0Y-90.5
X151.0Y-91.25
X151.0Y-116.75
X151.0Y-117.5
X151.0Y-118.25
X151.0Y-119.0
X151.0Y-119.75
X151.0Y-120.5
X151.0Y-121.25
X151.0Y-122.0
X151.0Y-122.75
X151.0Y-123.5
X151.0Y-123.5
X151.0Y-124.25
X156.0Y-51.0
X156.0Y-51.75
X156.0Y-52.5
X156.0Y-53.25
X156.0Y-54.0
X156.0Y-54.75
X156.0Y-55.5
X156.0Y-56.25
X156.0Y-57.0
X156.0Y-57.75
X156.0Y-57.75
X156.0Y-58.5
X156.0Y-83.75
X156.0Y-84.5
X156.0Y-85.25
X156.0Y-86.0
X156.0Y-86.75
X156.0Y-87.5
X156.0Y-88.25
X156.0Y-89.0
X156.0Y-89.75
X156.0Y-90.5
X156.0Y-90.5
X156.0Y-91.25
X156.0Y-116.75
X156.0Y-117.5
X156.0Y-118.25
X156.0Y-119.0
X156.0Y-119.75
X156.0Y-120.5
X156.0Y-121.25
X156.0Y-122.0
X156.0Y-122.75
X156.0Y-123.5
X156.0Y-123.5
X156.0Y-124.25
T2
X39.744Y-50.006
X39.744Y-69.056
X39.744Y-88.106
X39.744Y-107.156
X39.744Y-126.206
X50.744Y-50.006
X50.744Y-69.056
X50.744Y-88.106
X50.744Y-107.156
X50.744Y-126.206
X58.794Y-50.006
X58.794Y-69.056
X58.794Y-88.106
X58.794Y-107.156
X58.794Y-126.206
X69.794Y-50.006
X69.794Y-69.056
X69.794Y-88.106
X69.794Y-107.156
X69.794Y-126.206
X77.844Y-45.244
X77.844Y-64.294
X77.844Y-83.344
X77.844Y-102.394
X77.844Y-121.444
X88.844Y-45.244
X88.844Y-64.294
X88.844Y-83.344
X88.844Y-102.394
X88.844Y-121.444
X96.894Y-40.481
X96.894Y-59.531
X96.894Y-78.581
X96.894Y-97.631
X96.894Y-116.681
X107.894Y-40.481
X107.894Y-59.531
X107.894Y-78.581
X107.894Y-97.631
X107.894Y-116.681
X115.944Y-47.625
X115.944Y-66.675
X115.944Y-85.725
X115.944Y-104.775
X115.944Y-123.825
X126.944Y-47.625
X126.944Y-66.675
X126.944Y-85.725
X126.944Y-104.775
X126.944Y-123.825
X134.994Y-52.387
X134.994Y-71.438
X134.994Y-90.487
X134.994Y-109.537
X134.994Y-128.588
X145.994Y-52.387
X145.994Y-71.438
X145.994Y-90.487
X145.994Y-109.537
X145.994Y-128.588
X161.188Y-52.387
X161.188Y-71.438
X161.188Y-90.487
X161.188Y-109.537
X161.188Y-128.588
X172.188Y-52.387
X172.188Y-71.438
X172.188Y-90.487
X172.188Y-109.537
X172.188Y-128.588
X180.237Y-47.625
X180.237Y-66.675
X180.237Y-85.725
X180.237Y-104.775
X180.237Y-123.825
X191.237Y-47.625
X191.237Y-66.675
X191.237Y-85.725
X191.237Y-104.775
X191.237Y-123.825
X199.287Y-40.481
X199.287Y-59.531
X199.287Y-78.581
X199.287Y-98.269
X199.287Y-116.681
X210.287Y-40.481
X210.287Y-59.531
X210.287Y-78.581
X210.287Y-98.269
X210.287Y-116.681
X218.337Y-45.244
X218.337Y-64.294
X218.337Y-83.344
X218.337Y-102.394
X218.337Y-121.444
X229.337Y-45.244
X229.337Y-64.294
X229.337Y-83.344
X229.337Y-102.394
X229.337Y-121.444
X237.387Y-50.006
X237.387Y-69.056
X237.387Y-88.106
X237.387Y-107.156
X237.387Y-126.206
X248.387Y-50.006
X248.387Y-69.056
X248.387Y-88.106
X248.387Y-107.156
X248.387Y-126.206
X256.438Y-50.006
X256.438Y-69.056
X256.438Y-88.106
X256.438Y-107.156
X256.438Y-126.206
X267.438Y-50.006
X267.438Y-69.056
X267.438Y-88.106
X267.438Y-107.156
X267.438Y-126.206
T3
X30.5Y-100.5
X82.5Y-19.5
X102.5Y-132.5
X205.0Y-132.5
X226.0Y-18.5
X275.5Y-89.0
T4
X45.244Y-50.006
X45.244Y-69.056
X45.244Y-88.106
X45.244Y-107.156
X45.244Y-126.206
X64.294Y-50.006
X64.294Y-69.056
X64.294Y-88.106
X64.294Y-107.156
X64.294Y-126.206
X83.344Y-45.244
X83.344Y-64.294
X83.344Y-83.344
X83.344Y-102.394
X83.344Y-121.444
X102.394Y-40.481
X102.394Y-59.531
X102.394Y-78.581
X102.394Y-97.631
X102.394Y-116.681
X121.444Y-47.625
X121.444Y-66.675
X121.444Y-85.725
X121.444Y-104.775
X121.444Y-123.825
X140.494Y-52.387
X140.494Y-71.438
X140.494Y-90.487
X140.494Y-109.537
X140.494Y-128.588
X166.688Y-52.387
X166.688Y-71.438
X166.688Y-90.487
X166.688Y-109.537
X166.688Y-128.588
X185.737Y-47.625
X185.737Y-66.675
X185.737Y-85.725
X185.737Y-104.775
X185.737Y-123.825
X204.787Y-40.481
X204.787Y-59.531
X204.787Y-78.581
X204.787Y-98.269
X204.787Y-116.681
X223.837Y-45.244
X223.837Y-64.294
X223.837Y-83.344
X223.837Y-102.394
X223.837Y-121.444
X242.887Y-50.006
X242.887Y-69.056
X242.887Y-88.106
X242.887Y-107.156
X242.887Y-126.206
X261.938Y-50.006
X261.938Y-69.056
X261.938Y-88.106
X261.938Y-107.156
X261.938Y-126.206
M30
